<svg xmlns="http://www.w3.org/2000/svg" viewBox="0 0 279.57 120.12"><defs><style>.cls-1{fill:#a49055;}.cls-2{fill:#1b0733;}</style></defs><g id="Camada_2" data-name="Camada 2"><g id="Camada_1-2" data-name="Camada 1"><path class="cls-1" d="M165.5,0H139.21a6,6,0,0,0-6,6V39a6,6,0,0,1-12,0V14.85a6,6,0,0,0-6-6h-1.15a6,6,0,0,0-6,6V52.16a6,6,0,0,0,6,6h26.3a6,6,0,0,0,6-6V33.36a5.59,5.59,0,1,1,0-8.16V19.15a6,6,0,0,1,12,0v6.08a5.59,5.59,0,1,1,0,8.1v10a6,6,0,0,0,6,6h1.15a6,6,0,0,0,6-6V6A6,6,0,0,0,165.5,0Z"/><circle class="cls-2" cx="152.37" cy="39.1" r="3.46"/><circle class="cls-2" cx="152.37" cy="19.46" r="3.46"/><circle class="cls-2" cx="162.19" cy="29.28" r="3.46"/><circle class="cls-2" cx="142.55" cy="29.28" r="3.46"/><path class="cls-1" d="M31.36,87.43v32.14H24.2v-4.09A13.13,13.13,0,0,1,13.85,120C5.6,120,0,115.48,0,105.79V87.43H7.53v17.33c0,5.84,2.76,8.61,7.52,8.61,5.24,0,8.79-3.25,8.79-9.69V87.43Z"/><path class="cls-1" d="M72.89,101.15v18.42H65.36V102.11c0-5.71-2.83-8.48-7.64-8.48-5.36,0-9,3.25-9,9.69v16.25H41.22V87.43h7.17v4.15c2.46-3,6.38-4.51,11.07-4.51C67.17,87.07,72.89,91.46,72.89,101.15Z"/><path class="cls-1" d="M81.31,76.59a4.31,4.31,0,0,1,4.27-4.51,4.19,4.19,0,0,1,4.27,4.33c0,2.65-1.76,4.7-4.27,4.7A4.32,4.32,0,0,1,81.31,76.59Zm.9,9.81h6.68v32.15H82.21Z"/><path class="cls-2" d="M191.81,120.12a19.51,19.51,0,1,1,19.51-19.5A19.53,19.53,0,0,1,191.81,120.12Zm0-29.26a9.76,9.76,0,1,0,9.77,9.76A9.77,9.77,0,0,0,191.81,90.86Z"/><rect class="cls-1" x="186.84" y="76.47" width="9.95" height="22.82"/><path class="cls-2" d="M96.38,116.28l4.83-9.55a24,24,0,0,0,11.78,3.1c3.1,0,4.16-.68,4.16-1.61,0-2.92-17.12.18-17.12-11.16,0-8.74,8.5-12.84,19.1-12.84a33,33,0,0,1,13.27,2.55l-4.84,9.54a20.16,20.16,0,0,0-10.11-2.54c-3.22,0-4.27.87-4.27,1.68,0,3.1,17-.13,17,11.22,0,8.49-8.56,12.71-19,12.71C105.18,119.38,99.35,118,96.38,116.28Z"/><path class="cls-2" d="M133.63,103.69c0-11.16,8.87-19.47,21.39-19.47,8.06,0,14.39,3.79,16.8,9.92l-11.9,5.46c-1.18-3.16-3.22-4.34-5.58-4.34-3.78,0-6.51,3-6.51,7.56,0,3.23,1.86,5.52,5.33,5.52,2.73,0,4.72-1.18,6.33-4.34l10.23,6c-3.35,6-9.61,9.43-17.61,9.43C141,119.38,133.63,113.18,133.63,103.69Z"/><path class="cls-2" d="M243,84.22l-2.48,12.4a18.83,18.83,0,0,0-3-.24c-4.65,0-7.5,1.92-8.49,6.69l-3.16,15.69h-14l6.76-33.92h13.21l-.68,3.48C234,85.46,238.15,84.22,243,84.22Z"/><path class="cls-2" d="M278.82,105.06H255.08c.62,2.85,2.85,4,6.51,4a12.4,12.4,0,0,0,7.37-2.35l5.83,8.49A25.51,25.51,0,0,1,260,119.38c-11.16,0-18.66-6.08-18.66-15.69,0-11.16,8.37-19.47,21-19.47,10.85,0,17.24,6.2,17.24,15A24.84,24.84,0,0,1,278.82,105.06ZM255.64,98.3h11.09c0-2.85-2-4.53-5-4.53A6.16,6.16,0,0,0,255.64,98.3Z"/></g></g></svg>